{"title":"Kinks 1970 Lola Versus Powerman and the Moneygoround, Part One","uid":14164127,"size":867482891,"categoryP":"audio","categoryS":"flac","magnet":"?xt=urn:btih:d596b00443c12b3efb3e8aa862a4cde7aab169c3&amp;dn=Kinks+1970+Lola+Versus+Powerman+and+the+Moneygoround%2C+Part+One&amp;tr=udp%3A%2F%2Ftracker.leechers-paradise.org%3A6969&amp;tr=udp%3A%2F%2Fzer0day.ch%3A1337&amp;tr=udp%3A%2F%2Fopen.demonii.com%3A1337&amp;tr=udp%3A%2F%2Ftracker.coppersurfer.tk%3A6969&amp;tr=udp%3A%2F%2Fexodus.desync.com%3A6969","seeders":3,"leechers":0,"uploader":"sailorsaint","files":16,"time":1459727565,"description":"Lola Versus Powerman and the Moneygoround, Part One, commonly abbreviated to Lola Versus Powerman, or just Lola, is the eighth studio album by British rock band the Kinks, recorded and released in 1970.[1] A concept album, it is a satirical appraisal of the music industry, including song publishers, unions, the press, accountants, business managers, and life on the road.[1] Musically Lola Versus Powerman is varied, described by Stephen Thomas Erlewine as &quot;a wildly unfocused but nonetheless dazzling tour de force&quot;, containing some of Ray Davies' strongest songs.[1]\r\n\r\nAlthough it appeared during a transitional period for the Kinks, Lola Versus Powerman was a success both critically and commercially for the group, charting in the Top 40 in America[2] and helping restore them in the public eye, making it a &quot;comeback&quot; album. It contained two hit singles: &quot;Lola&quot;, which reached the top 10 in the US and UK, and &quot;Apeman&quot;, which peaked at number five in the UK.[2]\r\n\r\n\r\n1. \t&quot;The Contenders&quot;   \t2:42\r\n2. \t&quot;Strangers&quot; (Dave Davies) \t3:20\r\n3. \t&quot;Denmark Street&quot;   \t2:02\r\n4. \t&quot;Get Back in Line&quot;   \t3:04\r\n5. \t&quot;Lola&quot;   \t4:01\r\n6. \t&quot;Top of the Pops&quot;   \t3:40\r\n7. \t&quot;The Moneygoround&quot;   \t1:47\r\n\r\n8. \t&quot;This Time Tomorrow&quot;   \t3:22\r\n9. \t&quot;A Long Way from Home&quot;   \t2:27\r\n10. \t&quot;Rats&quot; (Dave Davies) \t2:40\r\n11. \t&quot;Apeman&quot;   \t3:52\r\n12. \t&quot;Powerman&quot;   \t4:18\r\n13. \t&quot;Got to Be Free&quot;  \r\n\r\n\r\nson-of-albion 2010 rip\r\n24bit / 96kHz\r\n\r\nOriginal 1970 UK Pye pressing / NSPL 18359\r\n\r\nTech. Info:\r\nKnosti RCM\r\nPink Triangle LPT with\r\nFunk Firm Achromat.\r\nMoth Arm.\r\nAudio Technica AT33PTG MC Cart.\r\nHarman Kardon PM660 Integrated Amp.\r\nCreative S80300 ADC. Gold Interconnects.\r\nClick Repair.\r\nSplit and manual de-click with Adobie Audition.\r\n\r\n\r\n\r\n\r\n\r\nfoobar2000 1.1.13 / Dynamic Range Meter 1.1.1\r\nlog date: 2012-08-31 12:50:52\r\n\r\n--------------------------------------------------------------------------------\r\nAnalyzed: The Kinks / Lola Versus Powerman And The Moneygoround, Part One\r\n--------------------------------------------------------------------------------\r\n\r\nDR         Peak         RMS     Duration Track\r\n--------------------------------------------------------------------------------\r\nDR14      -3.00 dB   -20.63 dB      2:43 01-The Contenders\r\nDR13      -4.91 dB   -21.47 dB      3:22 02-Strangers\r\nDR13      -5.91 dB   -20.93 dB      2:04 03-Denmark Street\r\nDR14      -5.69 dB   -22.16 dB      3:06 04-Get Back In Line\r\nDR11      -5.61 dB   -19.13 dB      4:03 05-Lola\r\nDR12      -4.98 dB   -19.80 dB      3:41 06-Top Of The Pops\r\nDR12      -4.41 dB   -18.81 dB      1:42 07-The Moneygoround\r\nDR12      -5.67 dB   -20.37 dB      3:21 08-This Time Tomorrow\r\nDR12      -5.29 dB   -20.56 dB      2:27 09-A Long Way From Home\r\nDR12      -5.46 dB   -18.89 dB      2:40 10-Rats\r\nDR13      -4.85 dB   -21.04 dB      3:52 11-Apeman\r\nDR12      -5.64 dB   -19.46 dB      4:16 12-Powerman\r\nDR12      -4.64 dB   -19.93 dB      3:06 13-Got To Be Free\r\n--------------------------------------------------------------------------------\r\n\r\nNumber of tracks:  13\r\nOfficial DR value: DR12\r\n\r\nSamplerate:        96000 Hz\r\nChannels:          2\r\nBits per sample:   24\r\nBitrate:           2895 kbps\r\nCodec:             FLAC\r\n================================================================================","torrent":{"xt":"urn:btih:d596b00443c12b3efb3e8aa862a4cde7aab169c3","amp;dn":"Kinks+1970+Lola+Versus+Powerman+and+the+Moneygoround%2C+Part+One","amp;tr":["udp%3A%2F%2Ftracker.leechers-paradise.org%3A6969","udp%3A%2F%2Fzer0day.ch%3A1337","udp%3A%2F%2Fopen.demonii.com%3A1337","udp%3A%2F%2Ftracker.coppersurfer.tk%3A6969","udp%3A%2F%2Fexodus.desync.com%3A6969"],"infoHash":"d596b00443c12b3efb3e8aa862a4cde7aab169c3","infoHashBuffer":{"type":"Buffer","data":[213,150,176,4,67,193,43,62,251,62,138,168,98,164,205,231,170,177,105,195]},"announce":[],"urlList":[]}}